<svg width="47" height="39" viewBox="0 0 47 39" fill="none" xmlns="http://www.w3.org/2000/svg">
<path d="M1.25374 37.5487C1.5511 37.8057 1.91452 37.9847 2.30824 38.0683C2.70196 38.1519 3.11241 38.1371 3.49921 38.0254L45.2537 25.8981C45.6805 25.7739 46.061 25.5363 46.3497 25.2138C46.6384 24.8914 46.823 24.4976 46.8815 24.0797C46.94 23.6617 46.8699 23.2373 46.6796 22.857C46.4892 22.4768 46.1867 22.157 45.8082 21.9357L34.1995 15.1383L36.4671 0.541321L21.6534 7.79172L11.4117 1.79645C11.0955 1.61119 10.7364 1.50078 10.3648 1.47455C9.99309 1.44832 9.61978 1.50705 9.2764 1.64576C8.93302 1.78447 8.62967 1.99909 8.39199 2.27147C8.15431 2.54385 7.98929 2.86599 7.9109 3.21063L0.553319 35.475C0.469485 35.8492 0.489969 36.2371 0.61276 36.6007C0.735551 36.9642 0.956433 37.2909 1.25374 37.5487V37.5487ZM11.7566 7.16982L23.0837 13.803L13.7025 26.303L32.7089 19.4339L39.0121 23.1246L5.92512 32.7359L11.7566 7.16982V7.16982Z" fill="#FF0000"/>
</svg>
