<svg width="39" height="46" viewBox="0 0 39 46" fill="none" xmlns="http://www.w3.org/2000/svg">
<path d="M1.88665 1.31795C1.56272 1.54542 1.30973 1.84693 1.1526 2.19283C0.995467 2.53873 0.939595 2.91709 0.990484 3.29068L6.55777 43.6317C6.61492 44.0441 6.80018 44.4339 7.0914 44.7544C7.38261 45.0749 7.76746 45.3125 8.19991 45.4389C8.63237 45.5653 9.09412 45.5751 9.52997 45.4671C9.96582 45.3591 10.3573 45.1379 10.6576 44.8299L19.8797 35.3863L34.944 40.0063L29.8468 25.1804L37.9812 16.8485C38.2325 16.5913 38.412 16.2818 38.5046 15.9461C38.5971 15.6104 38.6 15.2584 38.5129 14.9199C38.4259 14.5813 38.2514 14.2662 38.0044 14.0011C37.7573 13.736 37.4449 13.5288 37.0936 13.397L4.20494 1.03808C3.82325 0.896118 3.40887 0.847273 3.00245 0.896337C2.59603 0.9454 2.21152 1.09069 1.88665 1.31795V1.31795ZM32.2302 16.2279L23.2311 25.4422L11.6274 14.675L15.5901 33.2731L10.5829 38.4006L6.16971 6.43348L32.2302 16.2279V16.2279Z" fill="#FF0000"/>
</svg>
