<svg width="54" height="43" viewBox="0 0 54 43" fill="none" xmlns="http://www.w3.org/2000/svg">
<path d="M0.912972 17.3499C0.883078 17.7263 0.959848 18.102 1.13573 18.44C1.31161 18.778 1.58054 19.0667 1.91605 19.2776L38.1933 42.0051C38.5643 42.2373 39.0016 42.365 39.4527 42.373C39.9039 42.381 40.3499 42.269 40.7374 42.0502C41.1249 41.8315 41.4374 41.5153 41.6377 41.1396C41.838 40.7638 41.9175 40.3443 41.8668 39.9313L40.3192 27.2573L53.9925 19.7808L38.647 13.5598L37.2802 2.37927C37.2382 2.03401 37.1064 1.70436 36.8962 1.4182C36.6859 1.13204 36.4033 0.897782 36.0723 0.735235C35.7412 0.572688 35.3714 0.486633 34.9942 0.484344C34.6169 0.482056 34.2433 0.563602 33.905 0.722088L2.21639 15.5455C1.84982 15.7185 1.53693 15.9758 1.30843 16.2921C1.07992 16.6085 0.943647 16.973 0.912972 17.3499ZM32.9841 5.98775L34.4935 18.3546L18.1352 19.3574L35.7809 28.86L36.6213 35.7415L7.87336 17.7327L32.9841 5.98775Z" fill="#FF0000"/>
</svg>
