<svg width="40" height="45" viewBox="0 0 40 45" fill="none" xmlns="http://www.w3.org/2000/svg">
<path d="M38.4438 43.7138C38.7401 43.4558 38.9575 43.1312 39.0746 42.7719C39.1916 42.4125 39.2043 42.0308 39.1114 41.6642L29.003 2.0933C28.8994 1.68876 28.671 1.31931 28.3451 1.02913C28.0191 0.738954 27.6095 0.540329 27.1651 0.457009C26.7208 0.373689 26.2605 0.409201 25.8393 0.559296C25.4181 0.709392 25.0539 0.967719 24.7901 1.30339L16.6897 11.598L1.18563 8.47964L7.93477 22.7236L0.789986 31.806C0.56923 32.0864 0.425793 32.4118 0.371804 32.7547C0.317816 33.0976 0.354865 33.4479 0.479817 33.776C0.604768 34.1042 0.81395 34.4005 1.08967 34.6399C1.36539 34.8792 1.69955 35.0547 2.06388 35.1514L36.1701 44.2192C36.5658 44.323 36.9834 44.331 37.382 44.2424C37.7806 44.1538 38.1465 43.9716 38.4438 43.7138V43.7138ZM6.5793 31.8597L14.484 21.8151L27.2434 31.3855L21.195 13.2791L25.5931 7.68956L33.6048 39.0464L6.5793 31.8597V31.8597Z" fill="#FF0000"/>
</svg>
