<svg width="46" height="51" viewBox="0 0 46 51" fill="none" xmlns="http://www.w3.org/2000/svg">
<path d="M17.694 50.2384C18.0981 50.2746 18.5038 50.2115 18.8711 50.0555C19.2385 49.8996 19.5548 49.656 19.7891 49.3488L45.0326 16.1324C45.2905 15.7926 45.4376 15.389 45.4562 14.9698C45.4748 14.5506 45.3642 14.1336 45.1376 13.7685C44.911 13.4035 44.5779 13.1059 44.1783 12.9114C43.7787 12.7169 43.3295 12.6337 42.8842 12.6717L29.2218 13.829L21.4858 0.95329L14.4559 15.0794L2.4034 16.1018C2.03122 16.1332 1.67383 16.2483 1.36146 16.4374C1.0491 16.6265 0.790932 16.884 0.608801 17.1881C0.426671 17.4922 0.325932 17.834 0.3151 18.1846C0.304268 18.5352 0.38366 18.8843 0.546568 19.2024L15.7827 48.9868C15.9606 49.3314 16.2303 49.6279 16.5654 49.8474C16.9005 50.0668 17.2894 50.2015 17.694 50.2384V50.2384ZM6.1882 20.1752L19.5196 19.0466L20.2349 34.2744L30.8444 18.083L38.2626 17.4546L18.2601 43.777L6.1882 20.1752V20.1752Z" fill="#FF0000"/>
</svg>
