<svg width="46" height="50" viewBox="0 0 46 50" fill="none" xmlns="http://www.w3.org/2000/svg">
<path d="M27.3295 0.192225C26.9247 0.164437 26.5206 0.23582 26.1571 0.39935C25.7935 0.56288 25.483 0.812923 25.2562 1.12488L0.812219 34.8543C0.562485 35.1993 0.425104 35.6058 0.416503 36.0253C0.407903 36.4448 0.528447 36.8594 0.76372 37.2197C0.998993 37.58 1.33904 37.8706 1.74319 38.0568C2.14735 38.243 2.5985 38.3169 3.04272 38.2698L16.6742 36.8306L24.7157 49.5435L31.4065 35.2757L43.4316 34.0048C43.803 33.9657 44.1575 33.8432 44.4653 33.6477C44.7731 33.4523 45.025 33.1895 45.1998 32.8817C45.3747 32.5739 45.4672 32.23 45.4697 31.8793C45.4721 31.5286 45.3844 31.1812 45.214 30.8666L29.2702 1.40407C29.0841 1.06325 28.8074 0.77234 28.4672 0.559889C28.1269 0.347438 27.7349 0.22074 27.3295 0.192225ZM39.5505 30.0105L26.2493 31.4141L25.1705 16.2048L14.9504 32.6112L7.54901 33.3926L26.9178 6.66372L39.5505 30.0105Z" fill="#FF0000"/>
</svg>
