<svg width="49" height="36" viewBox="0 0 49 36" fill="none" xmlns="http://www.w3.org/2000/svg">
<path d="M47.5152 1.09803C47.2531 0.809801 46.9154 0.59152 46.5353 0.464659C46.1552 0.337799 45.7458 0.30673 45.3474 0.374511L2.33044 7.76059C1.89066 7.83632 1.48226 8.02974 1.15408 8.31771C0.825909 8.60568 0.591845 8.97601 0.479882 9.38443C0.36792 9.79285 0.382797 10.2221 0.522735 10.6207C0.662673 11.0194 0.921748 11.3707 1.26898 11.6326L11.9176 19.6748L7.78431 33.9138L23.426 28.3668L32.8209 35.4603C33.1109 35.6795 33.4531 35.8291 33.8187 35.8966C34.1843 35.964 34.5625 35.9473 34.9213 35.8479C35.2801 35.7485 35.609 35.5692 35.88 35.3253C36.1511 35.0814 36.3565 34.7799 36.4787 34.4465L47.9432 3.23483C48.0747 2.87268 48.1044 2.48531 48.0293 2.1107C47.9543 1.73609 47.7771 1.38712 47.5152 1.09803V1.09803ZM33.1712 30.0872L22.7811 22.2394L33.7063 10.8751L13.9513 15.5763L8.16942 11.2097L42.257 5.35544L33.1712 30.0872V30.0872Z" fill="#FF0000"/>
</svg>
