<svg width="54" height="43" viewBox="0 0 54 43" fill="none" xmlns="http://www.w3.org/2000/svg">
<path d="M53.862 23.0577C53.8602 22.6802 53.752 22.3113 53.5483 21.9871C53.3445 21.6629 53.0521 21.3946 52.6999 21.2087L14.6228 1.18753C14.2334 0.983016 13.7867 0.88745 13.3363 0.912264C12.8858 0.937078 12.4506 1.08122 12.0827 1.32746C11.7148 1.5737 11.4297 1.9116 11.2617 2.30077C11.0936 2.68995 11.0496 3.11391 11.1349 3.52197L13.7434 16.0447L0.740499 24.4922L16.5622 29.5788L18.8648 40.6257C18.9357 40.9669 19.0948 41.2859 19.3284 41.5559C19.5621 41.8259 19.8635 42.0389 20.2073 42.1769C20.551 42.3149 20.9269 42.3738 21.3032 42.3487C21.6794 42.3236 22.045 42.2151 22.369 42.0325L52.7143 24.9512C53.0652 24.7521 53.3555 24.4729 53.5567 24.1409C53.7579 23.8089 53.8631 23.4356 53.862 23.0577V23.0577ZM22.8444 36.716L20.2997 24.4967L36.5237 22.308L18.133 14.1171L16.7166 7.31772L46.8907 23.1819L22.8444 36.716V36.716Z" fill="#FF0000"/>
</svg>
